<svg version="1.2" baseProfile="tiny-ps" xmlns="http://www.w3.org/2000/svg" viewBox="0 0 4000 2500" width="4000" height="2500">
	<title>Слой 1</title>
	<defs>
		<clipPath clipPathUnits="userSpaceOnUse" id="cp1">
			<path d="M462.56 580.77C420.95 580.77 387.21 547.04 387.21 505.42C387.21 463.81 420.95 430.07 462.56 430.07C504.18 430.07 537.91 463.81 537.91 505.42C537.91 547.04 504.18 580.77 462.56 580.77Z" />
		</clipPath>
	</defs>
	<style>
		tspan { white-space:pre }
		.shp0 { fill: #ffffff } 
		.shp1 { fill: #e7f3fe } 
		.shp2 { fill: #cce2ff } 
		.shp3 { opacity: 0.502;fill: #9ec8ff } 
		.shp4 { fill: #303c60 } 
		.shp5 { fill: #4476bd } 
		.shp6 { fill: #3e6bab } 
		.shp7 { fill: #f09959 } 
		.shp8 { fill: #a2dff2 } 
		.shp9 { fill: #96cfe0 } 
		.shp10 { fill: #e38540 } 
		.shp11 { fill: #f5dc95 } 
		.shp12 { fill: #a8ceff } 
		.shp13 { fill: #93bbf0 } 
		.shp14 { fill: #75a1de } 
		.shp15 { fill: #2e5b9a } 
		.shp16 { fill: #6791c9 } 
		.shp17 { fill: #f37168 } 
		.shp18 { fill: #d54a41 } 
		.shp19 { fill: #f2e5de } 
		.shp20 { fill: #a86b48 } 
		.shp21 { fill: #7a4e34 } 
		.shp22 { fill: #74b570 } 
		.shp23 { fill: #9cd499 } 
		.shp24 { opacity: 0.502;fill: #ffffff } 
		.shp25 { fill: #94bdf2 } 
		.shp26 { fill: #9ec8ff } 
		.shp27 { fill: #f39892 } 
		.shp28 { fill: none } 
		.shp29 { fill: #ffb8b3 } 
		.shp30 { fill: #fae8b6 } 
	</style>
	<g id="Слой 1">
		<path id="&lt;Path&gt;" class="shp0" d="M4000 2500L0 2500L0 0L4000 0L4000 2500Z" />
		<g id="&lt;Group&gt;">
			<g id="&lt;Group&gt;">
				<path id="&lt;Path&gt;" class="shp1" d="M674.23 345.98C1189.86 154.56 1713.93 323.79 2069.36 692.39C2424.79 1060.99 3170.72 437.98 3566.32 805.98C3836.3 1057.12 3712.63 1702.81 3342.45 1982.48C2839.27 2362.61 964.74 2374.03 653.72 2243.58C122.23 2020.68 650.32 1607.9 402.23 1212.21C109.55 745.39 446.37 430.57 674.23 345.98Z" />
			</g>
			<path id="&lt;Path&gt;" class="shp2" d="M3576.66 2133.69C3318.55 2121.07 2440.52 2142.44 2173.48 2150.78C1906.44 2159.11 1596.47 2139.78 1435.46 2111.36C1274.45 2082.93 343.73 2113.78 385.97 2190.2C428.2 2266.62 800.64 2224.39 1223 2255.1C1645.35 2285.82 2595.23 2251.26 2809.5 2255.1C3023.76 2258.94 3220.24 2247.42 3496.36 2232.06C3772.48 2216.71 3726.27 2141 3576.66 2133.69Z" />
			<g id="&lt;Group&gt;">
				<path id="&lt;Compound Path&gt;" fill-rule="evenodd" class="shp3" d="M2970.26 463.93C2966.42 483.06 2959.89 501.21 2951.1 517.99L2979.52 557.01C2971.84 569 2963.15 580.27 2953.58 590.73L2908.54 573.35C2894.48 586.29 2878.59 597.26 2861.3 605.85L2861.36 654.15C2848.28 659.29 2834.65 663.34 2820.59 666.2L2794.34 625.63C2786.68 626.51 2778.9 626.97 2771 626.97C2759.42 626.97 2748.08 625.99 2737.03 624.13L2708.68 663.25C2694.81 659.66 2681.41 654.88 2668.6 649.05L2671.21 600.81C2654.43 591.34 2639.14 579.55 2625.76 565.88L2579.85 580.86C2570.85 569.92 2562.78 558.2 2555.74 545.81L2586.17 508.35C2578.3 491.17 2572.75 472.7 2569.92 453.35L2524.02 438.5C2523.73 433.61 2523.57 428.7 2523.57 423.74C2523.57 414.35 2524.11 405.08 2525.13 395.96L2571.75 383.55C2575.58 364.42 2582.11 346.27 2590.91 329.49L2562.49 290.47C2570.16 278.48 2578.85 267.2 2588.42 256.75L2633.47 274.12C2647.53 261.19 2663.42 250.22 2680.7 241.63L2680.64 193.32C2693.73 188.19 2707.36 184.13 2721.42 181.27L2747.67 221.84C2755.33 220.97 2763.11 220.5 2771 220.5C2782.58 220.5 2793.93 221.49 2804.98 223.35L2833.33 184.22C2847.2 187.82 2860.6 192.6 2873.41 198.43L2870.8 246.66C2887.57 256.14 2902.86 267.93 2916.25 281.6L2962.16 266.62C2971.16 277.55 2979.23 289.28 2986.27 301.67L2955.83 339.12C2963.71 356.31 2969.26 374.77 2972.08 394.13L3017.99 408.98C3018.28 413.86 3018.44 418.78 3018.44 423.74C3018.44 433.13 3017.9 442.4 3016.88 451.52L2970.26 463.93ZM2868.05 423.74C2868.05 370.14 2824.6 326.69 2771 326.69C2717.4 326.69 2673.95 370.14 2673.95 423.74C2673.95 477.34 2717.4 520.79 2771 520.79C2824.6 520.79 2868.05 477.34 2868.05 423.74Z" />
				<g id="&lt;Group&gt;">
					<path id="&lt;Path&gt;" class="shp0" d="M2903.37 535.8C2902.24 535.8 2901.11 535.42 2900.17 534.64C2898.05 532.88 2897.76 529.72 2899.53 527.6C2923.71 498.52 2937.03 461.63 2937.03 423.74C2937.03 405.59 2934.07 387.78 2928.21 370.78C2927.31 368.17 2928.7 365.33 2931.31 364.43C2933.92 363.53 2936.77 364.91 2937.67 367.53C2943.88 385.57 2947.03 404.48 2947.03 423.74C2947.03 463.96 2932.89 503.12 2907.22 533.99C2906.23 535.18 2904.8 535.8 2903.37 535.8Z" />
				</g>
				<g id="&lt;Group&gt;">
					<path id="&lt;Path&gt;" class="shp0" d="M2889.32 306.74C2888.09 306.74 2886.86 306.29 2885.89 305.38C2869.64 290.07 2850.81 278.47 2829.94 270.9C2827.34 269.96 2826 267.09 2826.94 264.49C2827.88 261.9 2830.75 260.56 2833.35 261.5C2855.51 269.54 2875.49 281.85 2892.75 298.1C2894.76 299.99 2894.85 303.15 2892.96 305.16C2891.98 306.21 2890.65 306.74 2889.32 306.74Z" />
				</g>
				<g id="&lt;Group&gt;">
					<path id="&lt;Path&gt;" class="shp0" d="M2733.36 266.29C2731.12 266.29 2729.09 264.78 2728.51 262.51C2727.84 259.83 2729.46 257.11 2732.14 256.44C2745.91 252.96 2760.16 251.2 2774.49 251.2C2777.26 251.2 2779.49 253.44 2779.49 256.2C2779.49 258.96 2777.26 261.2 2774.49 261.2C2760.98 261.2 2747.56 262.86 2734.58 266.13C2734.17 266.24 2733.76 266.29 2733.36 266.29Z" />
				</g>
			</g>
			<path id="&lt;Path&gt;" class="shp3" d="M2621.35 1110.86L1074.89 1110.86L1074.89 181.98L2621.35 181.98L2621.35 1110.86Z" />
			<path id="&lt;Path&gt;" class="shp0" d="M2605.15 1057.38L1150.23 1057.38L1150.23 204.65L2605.15 204.65L2605.15 1057.38Z" />
			<g id="&lt;Group&gt;">
				<path id="&lt;Path&gt;" class="shp4" d="M2390.87 645.34C2460.21 579.34 2578.71 580.84 2576.21 681.34C2573.7 781.84 2582.01 791.29 2610.54 844.01C2709.54 1026.94 2492.54 1016.18 2402.04 1022.18C2311.54 1028.18 2319.04 857.68 2335.04 763.18C2351.04 668.68 2370.58 664.66 2390.87 645.34Z" />
				<path id="&lt;Path&gt;" class="shp5" d="M2423.19 1221.58C2400.96 1408.25 2360.57 1546.24 2356.07 1634.74C2353.07 1693.73 2345.57 1839.38 2333.57 2071.68C2366.57 2069.37 2384.57 2065.72 2387.57 2060.72C2392.07 2053.22 2480.57 1856.73 2476.07 1735.23C2473.07 1654.24 2502.53 1552.16 2564.46 1429.01L2542.06 1247.76L2423.19 1221.58Z" />
				<path id="&lt;Path&gt;" class="shp6" d="M2444.54 1302.84L2409.78 1317.39C2400.33 1376.58 2389.84 1429.8 2380.64 1477.01C2435.96 1512.77 2464.53 1631.93 2476.78 1704.78C2483.02 1623.26 2521.48 1524.76 2545.34 1470.29L2444.54 1302.84Z" />
				<path id="&lt;Path&gt;" class="shp5" d="M2605.06 1202.76C2655.01 1266.47 2679.2 1334.47 2677.63 1406.75C2674.06 1571.8 2656.06 1618.92 2687.38 1791.98C2695.53 1837.04 2686.53 1933.27 2660.38 2080.68C2638.04 2082.43 2620.87 2080.32 2608.87 2074.34C2610.37 2058.1 2587.21 1793.82 2542.11 1672.34C2520.26 1613.51 2489.57 1448.75 2473.07 1354.25C2456.57 1259.76 2453.57 1240.26 2459.57 1240.26C2463.57 1240.26 2512.07 1227.76 2605.06 1202.76Z" />
				<path id="&lt;Path&gt;" class="shp7" d="M2178.21 937.34C2180.43 904.38 2179.76 882.8 2176.2 872.62C2172.65 862.44 2155.54 852.9 2124.87 844.01C2123.54 891.12 2124.43 917.57 2127.54 923.34C2130.65 929.12 2141.32 940.23 2159.54 956.68L2178.21 937.34Z" />
				<path id="&lt;Path&gt;" class="shp8" d="M2436.86 901.31C2331.54 1014.68 2297.16 1062.38 2289.16 1062.38C2272.5 1032.96 2236.48 987.14 2181.12 924.92L2145.72 947.68C2200.26 1090.19 2244.87 1162.19 2279.54 1163.66C2331.54 1165.87 2437.23 1089.94 2438.57 1081.22C2439.47 1075.41 2438.9 1015.44 2436.86 901.31Z" />
				<path id="&lt;Path&gt;" class="shp9" d="M2327.01 1152.58C2378.54 1131.6 2437.57 1087.72 2438.57 1081.22C2439.47 1075.41 2438.9 1015.44 2436.86 901.31C2413.9 926.03 2393.86 947.95 2376.46 967.12C2357.59 1037.38 2358.82 1113.89 2327.01 1152.58Z" />
				<path id="&lt;Path&gt;" class="shp8" d="M2543.87 826.68C2611.06 860.36 2651.99 907.01 2666.66 966.63C2688.66 1056.05 2623.56 1166.54 2615.56 1225.5C2607.56 1284.46 2423.57 1294.83 2423.57 1231.72C2423.57 1171.21 2377.47 1042.78 2380.07 1010.06C2384.14 958.89 2423.58 901.96 2498.38 839.27L2543.87 826.68Z" />
				<path id="&lt;Path&gt;" class="shp7" d="M2514.58 710.83L2557.85 844.25C2527.05 868.02 2485.3 908.5 2432.58 965.68C2434.63 927.63 2451.59 887.86 2483.47 846.39L2450.74 720.39L2514.58 710.83Z" />
				<path id="&lt;Path&gt;" class="shp10" d="M2534.76 773.06L2514.58 710.83L2450.74 720.39L2483.47 846.39C2481.34 849.78 2478.7 854.15 2475.56 859.49C2506.39 836.6 2525.31 808.12 2534.76 773.06Z" />
				<path id="&lt;Path&gt;" class="shp7" d="M2490.74 740.94C2479.07 783.4 2433.88 806.78 2401.76 797.95C2369.65 789.13 2362.78 751.44 2374.45 708.98C2386.12 666.52 2421.62 639.25 2453.73 648.08C2485.84 656.9 2502.41 698.48 2490.74 740.94Z" />
				<path id="&lt;Path&gt;" class="shp8" d="M2415.53 1171.89C2424.87 1231.08 2412.2 1324 2377.51 1450.63C2398.2 1455.33 2439.54 1454.68 2501.54 1448.68C2594.54 1439.68 2635.54 1346.86 2649.54 1344.27C2663.54 1341.68 2670.73 1430.65 2677.63 1437.68C2684.54 1444.71 2685.59 1325.33 2667.54 1278.39C2635.54 1195.2 2641.8 1159.91 2653.76 1109.51C2667.94 1049.76 2588.53 1070.55 2415.53 1171.89Z" />
				<path id="&lt;Path&gt;" class="shp5" d="M2335.83 2027.98C2344.2 2062.01 2327.67 2089 2305.54 2108.68C2287.54 2124.68 2232.2 2131.48 2234.87 2139.48C2237.54 2147.48 2302.87 2150.01 2324.87 2146.68C2346.87 2143.34 2352.87 2132.68 2380.25 2132.69C2398.21 2132.7 2401.54 2118.1 2393.54 2100.06C2385.54 2082.01 2382.74 2072.04 2389.97 2055.86C2394.79 2045.08 2376.74 2035.78 2335.83 2027.98Z" />
				<path id="&lt;Path&gt;" class="shp5" d="M2662.31 2027.98C2660.97 2063.31 2656.87 2089.63 2665.54 2106.01C2699.01 2134.01 2726.83 2165.82 2716.2 2168.01C2665.54 2178.48 2646.2 2148.11 2617.54 2139.48C2582.36 2128.88 2620.87 2084.68 2607.09 2027.98C2601.98 2006.96 2619.68 1998.97 2660.2 2004.01L2662.31 2027.98Z" />
				<path id="&lt;Path&gt;" class="shp9" d="M2675.1 1307.36C2673.08 1296.28 2670.58 1286.3 2667.54 1278.39C2635.54 1195.2 2641.8 1159.91 2653.76 1109.51C2654.71 1105.53 2655.09 1102.04 2654.97 1098.98C2657.67 1090 2660.19 1080.89 2662.4 1071.72L2651.54 973.68L2573.23 880.68C2514.54 966.68 2554.15 1073.68 2545.34 1132.68C2539.47 1172.01 2503.76 1216.75 2438.2 1266.91L2441.4 1287.84C2445.79 1316.55 2472.41 1336.5 2501.18 1332.51C2541.71 1326.88 2594.88 1315.58 2618.54 1293.62C2641.43 1272.38 2661.71 1288.82 2675.1 1307.36Z" />
				<path id="&lt;Path&gt;" class="shp7" d="M2461.19 1263.53C2432.25 1271.63 2416.05 1276.58 2412.59 1278.39C2409.13 1280.21 2406.44 1285.89 2404.53 1295.46C2387.97 1309.84 2382.86 1319.58 2389.2 1324.68C2398.72 1332.32 2415.72 1351.66 2438.2 1342.66C2451.99 1337.14 2462.69 1286.45 2471.73 1286.04C2477.76 1285.77 2474.25 1278.27 2461.19 1263.53Z" />
				<path id="&lt;Path&gt;" class="shp8" d="M2584.14 869.34C2630.6 870.66 2672.73 954.34 2687.41 1026.94C2697.19 1075.34 2707.24 1133.95 2717.54 1202.76C2666.2 1243.27 2615.18 1269.45 2564.46 1281.29C2520.21 1291.62 2486.79 1298.81 2464.2 1302.84L2450.74 1264.95L2609.54 1171.68C2570.61 1098.34 2549.21 1034.01 2545.34 978.68C2539.54 895.68 2548.83 868.34 2584.14 869.34Z" />
				<path id="&lt;Path&gt;" class="shp11" d="M2151.94 900.92L2036.12 924.16L2021.37 850.6L2137.19 827.37L2151.94 900.92Z" />
				<path id="&lt;Path&gt;" class="shp7" d="M2150.35 931.34C2151.94 900.92 2136.87 859.43 2128.21 859.49C2119.54 859.55 2130.87 886.68 2126.2 904.68C2124.52 911.18 2132.57 920.07 2150.35 931.34Z" />
				<path id="&lt;Path&gt;" class="shp4" d="M2382.96 661.34C2385.54 744.68 2482.87 738.29 2509.54 733.15C2536.21 728.01 2477.07 908.96 2527.87 919.4C2565.17 927.07 2556.77 868.72 2598.21 872.62C2610.43 873.77 2622.68 883.79 2634.96 902.68C2633.12 891.04 2627.54 881.02 2618.21 872.62C2604.2 860.01 2567.5 782.68 2557.85 727.34C2548.2 672.01 2482.87 636.22 2463.54 635.12C2450.65 634.38 2428.43 641.34 2396.87 656.01L2382.96 661.34Z" />
				<g id="&lt;Group&gt;">
					<path id="&lt;Path&gt;" class="shp4" d="M2527.01 938.26C2525.69 938.26 2524.36 938.12 2523 937.83C2506.74 934.37 2498.86 917.28 2498.19 884.06C2497.61 855.58 2502.32 819.03 2507.3 780.34C2509.32 764.7 2511.4 748.54 2513.12 732.88C2513.26 731.55 2514.45 730.58 2515.8 730.73C2517.14 730.87 2518.11 732.08 2517.96 733.42C2516.24 749.11 2514.15 765.3 2512.14 780.96C2502.49 855.83 2493.38 926.55 2524.01 933.07C2524.96 933.27 2525.91 933.37 2526.86 933.37C2544.45 933.37 2560.29 899.09 2569.52 865.7C2569.88 864.4 2571.22 863.64 2572.52 864C2573.82 864.36 2574.58 865.7 2574.22 866.99C2568.12 889.03 2551.73 938.26 2527.01 938.26Z" />
				</g>
				<g id="&lt;Group&gt;">
					<path id="&lt;Path&gt;" class="shp4" d="M2520.5 957.63C2514.96 957.63 2510.13 955.48 2506.1 951.23C2472.92 916.15 2505.73 740.17 2507.14 732.7C2507.39 731.38 2508.67 730.51 2509.99 730.76C2511.31 731.01 2512.18 732.28 2511.93 733.6C2511.59 735.41 2478.16 914.6 2509.64 947.88C2513.3 951.75 2517.64 953.29 2522.89 952.6C2540.12 950.32 2550.06 926.94 2558.84 906.32C2567.35 886.31 2575.36 867.41 2589.62 867.91C2590.97 867.96 2592.02 869.09 2591.97 870.43C2591.93 871.78 2590.8 872.86 2589.45 872.78C2589.33 872.78 2589.22 872.77 2589.1 872.77C2578.41 872.77 2571.08 890 2563.32 908.22C2554.04 930.05 2543.51 954.79 2523.52 957.43C2522.5 957.56 2521.49 957.63 2520.5 957.63Z" />
				</g>
				<path id="&lt;Path&gt;" class="shp7" d="M2513.15 749.16C2506.29 758 2495.54 761.14 2489.14 756.17C2482.74 751.21 2483.12 740.02 2489.98 731.17C2496.83 722.33 2507.58 719.19 2513.98 724.16C2520.38 729.12 2520.01 740.32 2513.15 749.16Z" />
			</g>
			<g id="&lt;Group&gt;">
				<path id="&lt;Path&gt;" class="shp4" d="M1756.88 1057.74C1780.64 1105.26 1760.97 1159.98 1714.23 1179.31C1667.19 1198.77 1615.75 1187.72 1591.99 1140.2C1568.23 1092.69 1585.87 1035.71 1631.41 1012.94C1676.94 990.17 1733.11 1010.23 1756.88 1057.74Z" />
				<g id="&lt;Group&gt;">
					<path id="&lt;Path&gt;" class="shp4" d="M1628.78 1185.02C1623.54 1185.02 1613.2 1183.16 1600.06 1171.5C1589.27 1161.94 1581.53 1147.27 1578.26 1130.2C1574.12 1108.65 1576.82 1083.89 1586.26 1056.58C1586.7 1055.31 1588.08 1054.64 1589.36 1055.08C1590.63 1055.52 1591.3 1056.9 1590.86 1058.17C1581.7 1084.66 1579.07 1108.58 1583.04 1129.28C1586.12 1145.3 1593.31 1159 1603.29 1167.86C1619.96 1182.65 1631.13 1179.96 1631.25 1179.93C1632.54 1179.59 1633.87 1180.35 1634.23 1181.64C1634.58 1182.93 1633.84 1184.26 1632.55 1184.62C1632.39 1184.67 1631.07 1185.02 1628.78 1185.02Z" />
				</g>
				<g id="&lt;Group&gt;">
					<path id="&lt;Path&gt;" class="shp12" d="M1701.45 1242.65C1728.49 1248.71 1762.64 1323.86 1779.36 1372.01C1796.22 1420.57 1824.81 1480.81 1843.53 1499.52C1856.01 1512 1903.24 1532.7 1985.24 1561.63C1782.64 1562.02 1683.42 1562.02 1687.57 1561.62C1691.72 1561.22 1696.35 1454.9 1701.45 1242.65Z" />
					<path id="&lt;Path&gt;" class="shp13" d="M1862.78 1537.49C1846.15 1535.11 1786.13 1542.84 1811.68 1532.14C1828.72 1525.01 1836.04 1516.89 1833.67 1507.78C1809.5 1527.98 1795.24 1529.25 1790.89 1511.58C1785.25 1488.74 1783.09 1408.07 1761.7 1327.21C1744.03 1287.12 1720.9 1247.01 1701.45 1242.65C1700.99 1261.63 1700.39 1284.42 1699.64 1311.04C1707.1 1399.37 1719.77 1529.15 1722.98 1561.87C1763.26 1561.93 1830.67 1561.87 1887.07 1561.79L1924.58 1560C1894.47 1546.58 1873.88 1539.07 1862.78 1537.49Z" />
					<path id="&lt;Path&gt;" class="shp12" d="M1602.02 1226C1544.67 1258.04 1509.31 1277.47 1495.94 1284.29C1475.89 1294.51 1552.12 1594.56 1569.08 1607.42C1586.03 1620.28 1735.3 1609.63 1752.29 1593.43C1769.29 1577.23 1739.25 1527.51 1753.96 1427.96C1768.66 1328.4 1709.1 1242.46 1701.45 1242.65C1696.35 1242.78 1677.15 1237.23 1643.86 1226L1602.02 1226Z" />
					<path id="&lt;Path&gt;" class="shp13" d="M1569.08 1607.42C1586.03 1620.28 1692.84 1620.56 1738.31 1606.42C1743.44 1604.82 1766.74 1595.54 1767.28 1586.81C1761.8 1585.78 1740.01 1588.4 1731.17 1586.36C1710.67 1581.65 1694.77 1566.6 1683.48 1541.21C1672.19 1537.14 1653.92 1529.77 1628.67 1519.07C1590.79 1503.03 1606.39 1454.45 1605.5 1433.06C1604.6 1411.67 1568.06 1341.7 1499.43 1288.67L1493.14 1291.49C1488.24 1340.25 1553.39 1595.52 1569.08 1607.42Z" />
					<g id="&lt;Group&gt;">
						<path id="&lt;Path&gt;" class="shp14" d="M2160.11 1372.01L1952.97 1372.01L1858.62 1572.77L2086.8 1572.77L2172.2 1391.04C2176.36 1382.18 2169.9 1372.01 2160.11 1372.01Z" />
						<g id="&lt;Group&gt;">
							<path id="&lt;Path&gt;" class="shp6" d="M1870.97 1575.62L1746.32 1575.62C1738.59 1575.62 1732.32 1569.35 1732.32 1561.62C1732.32 1553.89 1738.59 1547.62 1746.32 1547.62L1862.04 1547.62L1940.27 1379.25C1943.53 1372.23 1951.86 1369.19 1958.87 1372.45C1965.88 1375.71 1968.92 1384.03 1965.66 1391.04L1883.66 1567.52C1881.37 1572.46 1876.42 1575.62 1870.97 1575.62Z" />
						</g>
					</g>
					<path id="&lt;Path&gt;" class="shp7" d="M1654.81 1532.74C1708.89 1542.84 1722.18 1555.25 1751.66 1560C1785.07 1565.39 1781.1 1572.77 1756.28 1572.77C1731.47 1572.77 1669.1 1573.74 1647.7 1568.98C1633.43 1565.81 1635.8 1553.73 1654.81 1532.74Z" />
					<path id="&lt;Path&gt;" class="shp12" d="M1489.18 1289.92C1447.74 1422.42 1388.99 1572.77 1398.35 1572.77C1407.71 1572.77 1645.67 1582.39 1655.03 1574.38C1664.39 1566.37 1661.71 1535.62 1660.38 1531.61C1659.48 1528.94 1614.39 1519.67 1525.09 1503.83C1536.85 1480.91 1544.96 1447.06 1549.41 1402.27C1556.1 1335.09 1497.04 1264.79 1489.18 1289.92Z" />
				</g>
				<path id="&lt;Path&gt;" class="shp7" d="M1633.53 1110.86L1600.15 1232.85C1637.75 1291.55 1661.72 1318.29 1672.06 1313.08C1687.57 1305.25 1663.39 1241.51 1663.39 1232.85C1663.39 1227.07 1671.45 1194.4 1687.57 1134.81L1633.53 1110.86Z" />
				<path id="&lt;Path&gt;" class="shp10" d="M1664.55 1239.07C1663.83 1236.18 1663.39 1234.01 1663.39 1232.85C1663.39 1227.07 1671.45 1194.4 1687.57 1134.81L1633.53 1110.86L1622.48 1151.22C1632.13 1192.93 1649.54 1220.7 1664.55 1239.07Z" />
				<path id="&lt;Path&gt;" class="shp7" d="M1758.44 1108.84C1764.8 1144.21 1760.61 1191.2 1729.2 1203.14C1697.78 1215.09 1659.95 1192.23 1644.68 1152.1C1629.42 1111.96 1642.51 1069.74 1673.93 1057.79C1705.34 1045.85 1750.84 1066.58 1758.44 1108.84Z" />
				<path id="&lt;Path&gt;" class="shp7" d="M1652.13 1128.75C1656.53 1141.11 1652.71 1153.77 1643.59 1157.02C1634.47 1160.26 1623.5 1152.87 1619.1 1140.5C1614.7 1128.14 1618.52 1115.48 1627.64 1112.23C1636.76 1108.99 1647.73 1116.38 1652.13 1128.75Z" />
				<path id="&lt;Path&gt;" class="shp4" d="M1758.81 1064.4C1751.68 1119.74 1714.49 1143.84 1647.26 1136.71C1633.39 1118.48 1623.34 1114.15 1617.1 1123.71C1607.74 1138.05 1630.08 1039.55 1687.95 1036.45C1700.63 1035.77 1724.25 1045.09 1758.81 1064.4Z" />
				<path id="&lt;Path&gt;" class="shp4" d="M1656.3 1029.3C1656.3 1057.61 1631.84 1080.55 1601.67 1080.55C1571.51 1080.55 1547.05 1057.61 1547.05 1029.3C1547.05 1001 1571.51 978.05 1601.67 978.05C1631.84 978.05 1656.3 1001 1656.3 1029.3Z" />
			</g>
			<g id="&lt;Group&gt;">
				<g id="&lt;Group&gt;">
					<path id="&lt;Path&gt;" class="shp15" d="M1492.87 2175.94L1505.36 2175.94L1586.02 1802.23L1558.54 1802.23L1492.87 2175.94Z" />
					<path id="&lt;Path&gt;" class="shp15" d="M1881.22 2175.94L1868.73 2175.94L1774.86 1789.02L1802.34 1789.02L1881.22 2175.94Z" />
					<g id="&lt;Group&gt;">
						<path id="&lt;Path&gt;" class="shp15" d="M1635.39 1816.23C1585.35 1816.23 1553.65 1807.25 1533.42 1787.54C1508.35 1763.11 1503.16 1725.27 1503.08 1675.97C1503.02 1637.17 1502.1 1611.9 1500 1591.47C1499.2 1583.78 1504.8 1576.9 1512.49 1576.11C1520.18 1575.32 1527.06 1580.91 1527.85 1588.6C1530.05 1610.02 1531.02 1636.13 1531.08 1675.92C1531.16 1725.89 1537.5 1752.42 1552.96 1767.48C1568.83 1782.94 1597.51 1789.31 1645.94 1788.1C1692.71 1786.94 1724.91 1780.4 1750.77 1775.14C1784.8 1768.23 1809.38 1763.23 1838.53 1777.16C1845.51 1780.5 1848.46 1788.85 1845.13 1795.83C1841.79 1802.81 1833.43 1805.76 1826.46 1802.42C1805.77 1792.54 1788.21 1796.11 1756.35 1802.58C1729.4 1808.06 1695.87 1814.87 1646.63 1816.09C1642.79 1816.18 1639.04 1816.23 1635.39 1816.23Z" />
					</g>
				</g>
				<path id="&lt;Path&gt;" class="shp15" d="M1521.71 1574.38L1598.3 1577.57L1577.91 1789.03C1539.85 1764.74 1521.12 1739.52 1521.71 1713.37C1522.31 1687.23 1522.31 1640.9 1521.71 1574.38Z" />
				<path id="&lt;Path&gt;" class="shp7" d="M1899.81 1594.08C1964.57 1584.25 1986.58 1587.35 2026.22 1661.12C2065.85 1734.88 2118.61 1867.69 2148.95 1884.85C2194.64 1910.68 2209.78 1974.01 2228.54 1971.17C2247.3 1968.32 2259.37 1976.61 2238.96 1993.58C2218.55 2010.54 2185.58 2024.99 2174.31 2021.98C2163.04 2018.97 2154.29 1970.26 2124.85 1954.45C2095.41 1938.63 2104.26 1925.64 2106.19 1911.65C2108.12 1897.66 2020.25 1833.26 1954 1753.16C1913.53 1704.21 1892.68 1671.91 1889.59 1642.63C1887.53 1623.11 1890.94 1606.93 1899.81 1594.08Z" />
				<path id="&lt;Path&gt;" class="shp10" d="M2060.36 1861.56C2045.32 1823.4 2030.23 1760.42 2016.05 1702.68C1995.88 1620.56 1974.74 1601.07 1961.35 1592.31C1945.16 1588.25 1925.98 1590.11 1899.81 1594.08C1890.94 1606.93 1887.53 1623.11 1889.59 1642.63C1892.68 1671.91 1913.53 1704.21 1954 1753.16C1988.88 1795.33 2029.75 1833.15 2060.36 1861.56Z" />
				<path id="&lt;Path&gt;" class="shp15" d="M1919.53 1659C1908.04 1745.68 1896.95 1793.43 1886.25 1802.24C1874.78 1811.69 1866.65 1812.32 1858.62 1773.54C1853.28 1747.69 1857.44 1686.52 1871.1 1590.03L1919.53 1659Z" />
				<path id="&lt;Path&gt;" class="shp7" d="M1905.8 1729.36L1746.32 1756.16L1836.36 1627.05L1904.88 1613.1L1945.97 1622.55L1905.8 1729.36Z" />
				<path id="&lt;Path&gt;" class="shp15" d="M2106.19 1911.65C2101.02 1932.49 2101.64 1947.89 2110.63 1955.61C2116.62 1960.75 2130.92 1982.44 2153.55 2020.68L2164.13 2019.07L2139.64 1966.59L2106.19 1911.65Z" />
				<path id="&lt;Path&gt;" class="shp15" d="M2174.31 2021.98C2185.58 2024.99 2218.55 2010.54 2238.96 1993.58C2259.37 1976.61 2247.3 1968.32 2228.54 1971.17C2227.49 1971.33 2226.44 1971.26 2225.4 1971.01C2216.03 1991.94 2185.21 2007.64 2175.27 1985.53C2165.41 1963.62 2123.19 1920.01 2106.18 1910.68C2106.22 1911.02 2106.23 1911.35 2106.19 1911.65C2104.26 1925.64 2095.41 1938.63 2124.85 1954.45C2154.29 1970.26 2163.04 2018.97 2174.31 2021.98Z" />
				<path id="&lt;Path&gt;" class="shp10" d="M1574.3 1599.29C1517.72 1700.83 1556.37 1765.36 1625.14 1771.94C1693.91 1778.51 1802.47 1765.96 1865.75 1713.37C1929.04 1660.79 1980.98 1605.18 1973.73 1596.89C1968.89 1591.36 1835.75 1592.16 1574.3 1599.29Z" />
				<path id="&lt;Path&gt;" class="shp7" d="M1895.17 1675.05C1906.75 1640.29 1920.11 1613.62 1945.97 1613.13C1973.16 1612.62 1989.89 1626.77 1991.05 1671.25C1992.43 1724.22 1994.3 1899.64 1991.85 1977.64C1990 2036.69 2007.21 2055.59 2005.75 2117.14C2004.66 2163.5 2054.08 2140.08 2034.99 2164.12C2021.86 2180.66 1982.78 2175.25 1958.78 2172.2C1937.39 2169.48 1969.85 2105.38 1940.25 2088.24C1914.84 2073.54 1914.35 2049.66 1930.39 2031.59C1946.43 2013.51 1932.17 1960.04 1921.48 1922.6C1910.78 1885.17 1894.19 1844.67 1883.3 1756.16C1880.19 1730.92 1888.09 1696.28 1895.17 1675.05Z" />
				<path id="&lt;Path&gt;" class="shp15" d="M2018.08 2145.2C2009.89 2147.7 1999.79 2150.45 1991 2150.75C1973.17 2151.34 1967.82 2131.73 1966.64 2105.1C1965.6 2081.84 1948.7 2045.21 1931.38 2030.36C1931.06 2030.78 1930.74 2031.2 1930.39 2031.59C1914.35 2049.66 1914.84 2073.54 1940.25 2088.24C1969.85 2105.38 1937.39 2169.48 1958.78 2172.2C1982.78 2175.25 2021.86 2180.66 2034.99 2164.12C2047.4 2148.5 2032 2147.26 2018.08 2145.2Z" />
				<path id="&lt;Path&gt;" class="shp15" d="M1934.4 2024.96C1917.07 2043.06 1909.2 2055.87 1910.78 2063.4C1913.16 2074.69 1921.17 2103.21 1922.51 2125.2C1923.41 2139.86 1924.25 2155.6 1925.04 2172.42C1931.28 2172.42 1934.65 2171.53 1935.14 2169.76C1935.64 2167.99 1937.62 2138.2 1941.09 2080.4L1934.4 2024.96Z" />
				<path id="&lt;Path&gt;" class="shp14" d="M1547.05 1590.03C1524.68 1684.99 1527.62 1745.62 1555.89 1771.94C1598.29 1811.41 1774.37 1775.91 1815.84 1773.54C1834.56 1772.47 1852.98 1783.36 1871.1 1806.21C1858.03 1753.23 1855.95 1705.35 1864.86 1662.57C1873.78 1619.79 1885.42 1596.96 1899.81 1594.08L1871.1 1590.03L1547.05 1590.03Z" />
				<path id="&lt;Path&gt;" class="shp12" d="M1539.45 1552.79C1553.8 1583.24 1524 1635.83 1534.44 1650.98C1544.89 1666.13 1604.68 1653.1 1643.86 1621.57C1669.98 1600.55 1707.76 1587.72 1757.19 1583.1L1539.45 1552.79Z" />
				<path id="&lt;Path&gt;" class="shp15" d="M1600.15 1812.31C1718.69 1816.76 1843.47 1814.66 1843.47 1796.99C1843.47 1779.33 1838.12 1766.85 1746.32 1773.98C1654.52 1781.11 1592.13 1790.92 1564.5 1784.68C1546.08 1780.52 1557.96 1789.73 1600.15 1812.31Z" />
			</g>
			<path id="&lt;Path&gt;" class="shp15" d="M2864.29 1605.04L1194.07 1605.04C1186.94 1605.04 1181.16 1599.26 1181.16 1592.13L1181.16 1585.68C1181.16 1578.55 1186.94 1572.77 1194.07 1572.77L2864.29 1572.77C2871.42 1572.77 2877.2 1578.55 2877.2 1585.68L2877.2 1592.13C2877.2 1599.26 2871.42 1605.04 2864.29 1605.04Z" />
			<g id="&lt;Group&gt;">
				<path id="&lt;Path&gt;" class="shp7" d="M3086.22 1140.27C3097.7 1180.76 3069.65 1222.48 3038.75 1231.25C3007.86 1240.01 2985.81 1212.5 2974.32 1172.01C2962.84 1131.52 2978.57 1091.6 3009.47 1082.83C3040.37 1074.07 3074.73 1099.78 3086.22 1140.27Z" />
				<path id="&lt;Path&gt;" class="shp7" d="M2912.98 1924.82C2965.77 2006.82 2995.73 2049.6 3002.86 2053.16C3013.56 2058.51 3040.3 2059.85 3030.27 2079.9C3020.24 2099.95 3016.23 2178.83 3006.87 2182.84C2997.52 2186.85 2917.3 2196.21 2929.33 2182.84C2941.37 2169.47 2948.77 2176.16 2954.84 2152.09C2960.91 2128.03 2969.44 2082.57 2958.08 2073.22C2950.5 2066.98 2923.54 2035.78 2877.2 1979.63L2912.98 1924.82Z" />
				<path id="&lt;Path&gt;" class="shp7" d="M2514.42 1977.64C2450.25 2083.41 2412.22 2141.05 2400.33 2150.55C2382.51 2164.81 2323.68 2186.21 2371.81 2189.77C2419.94 2193.34 2443.12 2173.73 2473.42 2164.81C2503.72 2155.9 2541.16 2150.55 2526.9 2127.38C2512.64 2104.21 2518.56 2053.62 2549.3 2021.53C2569.8 2000.14 2558.17 1985.51 2514.42 1977.64Z" />
				<path id="&lt;Path&gt;" class="shp16" d="M3005.65 1609.75C2846.79 1605.6 2735.86 1629.36 2672.88 1681.05C2617.62 1764.84 2483.93 2012.04 2473.54 2039.28C2480.67 2046.41 2520.78 2059.28 2538.61 2057.49C2591.2 1994.79 2660.7 1940.58 2688.35 1891.4C2722.41 1830.79 2732.91 1800.49 2788.17 1795.14C2843.43 1789.79 2968.21 1771.97 3005.65 1771.97C3030.6 1771.97 3030.6 1717.89 3005.65 1609.75Z" />
				<path id="&lt;Path&gt;" class="shp15" d="M3213.45 2190.2L3200.96 2190.2L3111.39 1816.49L3138.87 1816.49L3213.45 2190.2Z" />
				<path id="&lt;Path&gt;" class="shp15" d="M2839.27 2190.2L2851.77 2190.2L2954.55 1803.28L2927.07 1803.28L2839.27 2190.2Z" />
				<path id="&lt;Path&gt;" class="shp14" d="M3141.4 1593.43L3002.86 1617.34C2880.13 1618.47 2790.71 1624.26 2734.61 1634.71C2658.04 1648.97 2646.76 1735.96 2734.61 1855.75C2784.51 1923.8 2826.7 1978.08 2912.98 2039.28C2934.93 2023.16 2943.32 2017.07 2949.39 1978.3C2943.14 1969.74 2926.98 1916.15 2921.96 1905.66C2874.24 1805.9 2810.54 1769.62 2809.66 1759.81C2820.35 1742.43 3092.96 1850.4 3147.16 1786.89C3181.66 1746.46 3179.74 1681.98 3141.4 1593.43Z" />
				<path id="&lt;Path&gt;" class="shp17" d="M3147.16 1279.79C3110.67 1274.66 3073.51 1281.6 3038.75 1306.76C3008.38 1337.72 2974.02 1388.77 2976.13 1472.98C2978.8 1579.93 2959.58 1586.8 2979.63 1616.21C3063.27 1650.75 3206.31 1799.14 3172.63 1640.05C3148.23 1524.86 3226.12 1439 3163.29 1311.22C3158.17 1300.82 3151.78 1290.73 3147.16 1279.79Z" />
				<path id="&lt;Path&gt;" class="shp18" d="M2976.1 1513.23C2974.48 1568.99 2966.6 1585.41 2972.62 1602.89C3006.72 1606.37 3069.09 1620.02 3084.68 1641.84C3102.5 1666.79 3120.33 1670.36 3112.01 1651.94C3103.69 1633.52 3081.71 1607.37 3115.58 1517.65C3149.44 1427.93 3165.49 1367.32 3132.21 1304.93L2976.1 1513.23Z" />
				<path id="&lt;Path&gt;" class="shp7" d="M3147.16 1279.79C3132.18 1244.33 3122.85 1206.68 3119.17 1166.84L3060.35 1184.22C3082.63 1234.13 3083.08 1267.99 3061.69 1285.82C3054.87 1291.5 3046.95 1298.4 3038.75 1306.76C3073.51 1281.6 3110.67 1274.66 3147.16 1279.79Z" />
				<path id="&lt;Path&gt;" class="shp10" d="M3120.94 1181C3117.46 1177.9 3113.1 1174.03 3108.52 1169.98L3060.54 1184.16C3060.51 1184.25 3060.47 1184.33 3060.44 1184.42C3061.6 1187.07 3073.82 1215.59 3075.43 1243.02C3089.73 1234.34 3105.38 1220.2 3123.28 1195.49C3122.31 1190.01 3121.54 1185.12 3120.94 1181Z" />
				<path id="&lt;Path&gt;" class="shp7" d="M3105.8 1296.51C3045.22 1317.7 3051.94 1381.53 2996.18 1475.66C2976.94 1508.13 2958.39 1524.13 2940.52 1523.64C2895.4 1524.01 2845.56 1520.85 2790.99 1514.18C2739.73 1507.91 2736.48 1523.17 2772.13 1535.91C2844.03 1561.62 2918.64 1589.29 2978.8 1582.61C3038.96 1575.92 3141.85 1422.43 3147.16 1382.47C3154.5 1327.21 3136.31 1285.84 3105.8 1296.51Z" />
				<g id="&lt;Group&gt;">
					<path id="&lt;Path&gt;" class="shp15" d="M3074.62 1830.5C3070.86 1830.5 3067.01 1830.45 3063.06 1830.35C3013.82 1829.13 2980.29 1822.32 2953.34 1816.84C2921.48 1810.37 2903.92 1806.8 2883.23 1816.69C2876.26 1820.02 2867.9 1817.07 2864.57 1810.09C2861.23 1803.11 2864.18 1794.76 2871.16 1791.42C2900.31 1777.49 2924.9 1782.49 2958.92 1789.4C2984.79 1794.66 3016.98 1801.2 3063.75 1802.36C3116.42 1803.66 3148.64 1795.76 3165.1 1777.51C3179.8 1761.21 3184.13 1734.04 3178.72 1691.99C3176.89 1677.75 3175.06 1665.91 3173.45 1655.47C3168.91 1626.16 3165.92 1606.79 3169.62 1576.94C3173.06 1549.11 3182.3 1511.99 3203.68 1439.96C3205.88 1432.55 3213.68 1428.33 3221.09 1430.53C3228.5 1432.73 3232.73 1440.52 3230.53 1447.93C3190.52 1582.66 3192.55 1595.82 3201.12 1651.19C3202.76 1661.8 3204.62 1673.83 3206.49 1688.42C3213.02 1739.17 3206.47 1773.44 3185.89 1796.26C3164.68 1819.78 3130.1 1830.5 3074.62 1830.5Z" />
				</g>
				<path id="&lt;Path&gt;" class="shp18" d="M2520.96 2111.36C2457.09 2142.59 2422.72 2160.5 2402.24 2158.79C2397.41 2158.39 2393.4 2157.89 2390.04 2157.37C2367.26 2170.83 2330.9 2186.74 2371.81 2189.77C2419.94 2193.34 2443.12 2173.73 2473.42 2164.81C2503.73 2155.9 2541.16 2150.55 2526.9 2127.38C2524.17 2122.94 2522.18 2117.49 2520.96 2111.36Z" />
				<path id="&lt;Path&gt;" class="shp18" d="M3009.83 2055.77C3008.26 2106.34 3001.31 2156.45 2970.38 2165.92C2962.19 2168.43 2954.71 2168.79 2948.1 2167.91C2943.24 2173.92 2937.3 2173.99 2929.33 2182.84C2917.3 2196.21 2997.52 2186.85 3006.87 2182.84C3016.23 2178.83 3020.24 2099.95 3030.27 2079.9C3038.51 2063.43 3021.93 2059.58 3009.83 2055.77Z" />
				<g id="&lt;Group&gt;">
					<path id="&lt;Path&gt;" class="shp14" d="M2763.8 1575.62L2560.89 1575.62C2555.44 1575.62 2550.49 1572.46 2548.2 1567.52L2466.2 1391.04C2462.94 1384.03 2465.98 1375.71 2472.99 1372.45C2480.01 1369.19 2488.33 1372.23 2491.59 1379.25L2569.82 1547.62L2763.8 1547.62C2771.54 1547.62 2777.8 1553.89 2777.8 1561.62C2777.8 1569.35 2771.54 1575.62 2763.8 1575.62Z" />
				</g>
				<path id="&lt;Path&gt;" class="shp7" d="M2806.25 1515.94C2765.25 1515.35 2724.59 1490.91 2704.39 1494.48C2684.19 1498.04 2618.23 1543.79 2626.55 1545.58C2634.87 1547.36 2687.16 1520.26 2688.94 1519.84C2690.72 1519.43 2702.01 1538.62 2729.94 1545.66C2757.87 1552.71 2730.14 1524.73 2816.71 1550.88C2854.23 1562.21 2850.75 1550.57 2806.25 1515.94Z" />
				<path id="&lt;Path&gt;" class="shp19" d="M3141.12 1231.25L3147.16 1279.79C3111.79 1281.89 3085.3 1287.89 3067.7 1297.8C3050.1 1307.7 3028.31 1326.96 3002.34 1355.57L3034.17 1300.77L3038.75 1265.71L3141.12 1231.25Z" />
				<path id="&lt;Path&gt;" class="shp19" d="M3118.55 1290.67C3079.14 1283.28 3060.91 1318.59 3035.36 1376.23C3009.81 1433.87 2966.19 1503.87 2957.52 1512.9C2951.74 1518.91 2903.01 1518.91 2811.35 1512.9C2808.57 1539.44 2808.57 1554.29 2811.35 1557.46C2814.12 1560.63 2823.43 1562.02 2839.27 1561.62C2845.61 1566.68 2851.75 1571.21 2857.69 1575.22C2866.61 1581.23 2942.07 1592.52 2977.13 1590.74C3012.18 1588.95 3044.27 1585.98 3049.02 1580.63C3053.78 1575.29 3149.44 1427.93 3155.39 1375.04C3161.33 1322.16 3138.66 1294.44 3118.55 1290.67Z" />
				<path id="&lt;Path&gt;" class="shp4" d="M3002.34 1048.23C2952.65 1050.61 2931.7 1089.17 2939.5 1163.92C2952.4 1167.9 2972.37 1167.67 2999.41 1163.21C2997.33 1155.19 2996.74 1140.93 2997.63 1120.43C3000.77 1137.07 3004.33 1150.44 3008.32 1160.54C3016.9 1164.47 3026.59 1160.98 3043.08 1157C3051.55 1192.62 3075.48 1207.68 3091.86 1212.83C3109.96 1218.52 3129.12 1225.3 3150.51 1214.61C3171.9 1203.91 3160.14 1094.58 3148.78 1072.6C3131.73 1039.59 3103.39 1010.06 3054.37 1025.65C3037.98 1030.87 3020.64 1038.4 3002.34 1048.23Z" />
				<path id="&lt;Path&gt;" class="shp4" d="M3131.95 1181.39L3162.42 1225.9C3139.9 1282.15 3161.39 1323.02 3226.86 1348.5C3303.78 1378.44 3294.72 1431.19 3259.96 1484.24C3236.79 1519.61 3243.72 1552.73 3280.76 1583.62C3286.41 1544.44 3314.15 1521.15 3363.97 1513.76C3465.87 1498.64 3494.73 1361.82 3418.62 1293.41C3355.63 1236.8 3336.47 1283.68 3293.83 1232.88C3265.41 1199.01 3224.37 1193.52 3170.72 1216.39L3141.22 1173.37L3131.95 1181.39Z" />
				<g id="&lt;Group&gt;">
					<path id="&lt;Path&gt;" class="shp4" d="M3453.67 1430.96C3453.28 1430.96 3452.88 1430.86 3452.5 1430.66C3451.32 1430.01 3450.89 1428.53 3451.54 1427.35C3477.22 1380.41 3456.26 1323.54 3445.72 1308.14C3444.61 1306.51 3443.55 1304.86 3442.43 1303.12C3432.07 1286.94 3419.18 1266.81 3350.45 1254.44C3333.98 1251.48 3320.63 1241.67 3306.49 1231.29C3277.17 1209.77 3243.93 1185.37 3171.73 1218.6C3170.51 1219.17 3169.06 1218.63 3168.5 1217.41C3167.94 1216.19 3168.47 1214.74 3169.7 1214.18C3244.51 1179.75 3278.97 1205.05 3309.37 1227.37C3323.04 1237.4 3335.96 1246.88 3351.31 1249.65C3422.13 1262.4 3435.66 1283.52 3446.54 1300.49C3447.63 1302.2 3448.67 1303.82 3449.74 1305.38C3456.09 1314.67 3463.94 1333.9 3467.15 1355.93C3469.94 1375.03 3470.23 1403.34 3455.81 1429.69C3455.37 1430.5 3454.53 1430.96 3453.67 1430.96Z" />
				</g>
				<g id="&lt;Group&gt;">
					<path id="&lt;Path&gt;" class="shp4" d="M3115.67 1226.72C3110.81 1226.72 3105.55 1226.3 3099.89 1225.45C3073.91 1221.56 3039.06 1206.79 3036.32 1123.78C3036.27 1122.43 3037.33 1121.31 3038.67 1121.26C3040.06 1121.2 3041.14 1122.27 3041.19 1123.62C3042.32 1157.98 3049.15 1183.41 3061.47 1199.21C3070.85 1211.23 3083.29 1218.04 3100.61 1220.63C3124.86 1224.27 3140.95 1219.77 3148.42 1207.26C3149.11 1206.11 3150.61 1205.73 3151.76 1206.42C3152.92 1207.11 3153.29 1208.61 3152.6 1209.76C3145.86 1221.04 3133.47 1226.72 3115.67 1226.72Z" />
				</g>
			</g>
			<g id="&lt;Group&gt;">
				<path id="&lt;Path&gt;" class="shp9" d="M789.67 1285.62C703.17 1335.09 582.85 1540.7 608.25 1574.26C625.18 1596.63 679.11 1578.4 770.01 1519.58L789.67 1285.62Z" />
				<path id="&lt;Path&gt;" class="shp4" d="M951.28 1047.18C918.25 1046.28 930.51 1021.73 892.52 1031.53C872.55 1036.69 887.3 1044.9 861.35 1042.23C835.41 1039.55 822.64 1036.88 819.37 1053.81C816.1 1070.75 814.52 1076.1 802.04 1078.77C789.57 1081.44 783.93 1103.73 802.04 1118.88C820.16 1134.03 811.35 1140.27 807.34 1152.75C803.33 1165.23 817 1166.12 824.43 1177.7C831.85 1189.29 817.59 1191.48 828.29 1201.53C835.42 1208.22 843.98 1211.28 853.98 1210.68L899.01 1124.35L951.28 1047.18Z" />
				<path id="&lt;Path&gt;" class="shp15" d="M1624.26 2083.39C1656.35 2084.28 1684.87 2079.82 1709.82 2070.02C1747.25 2055.31 1772.65 2032.59 1765.97 2059.32C1759.28 2086.06 1728.54 2131.93 1701.8 2136.4C1675.06 2140.87 1665.7 2170.29 1651 2170.29C1636.29 2170.29 1614.9 2136.4 1577.47 2119.47C1554.73 2109.18 1570.32 2097.15 1624.26 2083.39Z" />
				<path id="&lt;Path&gt;" class="shp15" d="M1244.98 2078.88C1258.48 2097.49 1276.97 2113.26 1300.45 2126.2C1336.83 2146.26 1378.81 2155.91 1352.78 2164.98C1326.76 2174.05 1288.7 2181.1 1251.59 2170.32C1225.55 2162.76 1195.03 2161.18 1186.97 2148.88C1178.91 2136.58 1196.46 2105.69 1189.16 2059.53C1185.26 2034.87 1203.87 2041.32 1244.98 2078.88Z" />
				<path id="&lt;Path&gt;" class="shp6" d="M1019.62 1630.22C1205.48 1699.82 1305.9 1744.34 1320.88 1763.8C1343.34 1792.98 1636.39 2058.82 1636.39 2078.42C1636.39 2091.5 1619.76 2109.92 1586.48 2133.69C1418.92 2030.89 1314.34 1953.35 1272.75 1901.06C1210.35 1822.62 1058.08 1784.81 977.13 1777.55C923.16 1772.7 937.33 1723.6 1019.62 1630.22Z" />
				<path id="&lt;Path&gt;" class="shp5" d="M1030.31 1630.22C1157.47 1625.47 1234.72 1625.47 1262.05 1630.22C1303.05 1637.35 1392.98 1637.27 1334.16 1803.28C1303.42 1890.03 1282.98 1988.32 1272.84 2098.14L1181.16 2120.66C1183.59 1923.18 1199.38 1798.14 1228.54 1745.56C1196.69 1750.81 1138.22 1761.05 1057.18 1784.23C956.96 1812.89 879.38 1820.04 824.43 1805.69L802.04 1727.25L1030.31 1630.22Z" />
				<path id="&lt;Path&gt;" class="shp20" d="M871.03 1137.76L824.43 1275.46L883.3 1314.23L916.67 1195.25L871.03 1137.76Z" />
				<path id="&lt;Path&gt;" class="shp21" d="M888.57 1295.45L916.67 1195.25L871.03 1137.76L853.98 1188.13C859.87 1233.62 874.08 1271.25 888.57 1295.45Z" />
				<path id="&lt;Path&gt;" class="shp20" d="M989.91 1161.07C991.42 1202.95 970.85 1239.2 938.15 1242.42C905.46 1245.64 875.62 1214.45 871.5 1172.74C867.39 1131.04 890.56 1094.62 923.26 1091.39C955.96 1088.17 987.52 1094.98 989.91 1161.07Z" />
				<path id="&lt;Path&gt;" class="shp8" d="M802.04 1271.45C658.99 1368.06 747.96 1524.18 779.38 1638.27C806.13 1735.44 805.26 1794.17 809.27 1794.17C813.28 1794.17 911.67 1779.46 967.82 1728.66C1005.25 1694.79 1036.62 1661.46 1061.93 1628.65C1013.97 1620.11 982.15 1584.82 966.48 1522.78C954.54 1475.54 959.97 1449.89 932.76 1375.02C914.62 1325.11 871.05 1290.59 802.04 1271.45Z" />
				<path id="&lt;Path&gt;" class="shp8" d="M802.04 1271.45L817.37 1233.96C849.75 1255.35 872.4 1271.1 885.33 1281.2C898.25 1291.3 908.7 1297.54 916.67 1299.91C921.34 1335.74 922.16 1352.03 919.13 1348.78C880.9 1307.82 841.88 1282.04 802.04 1271.45Z" />
				<g id="&lt;Group&gt;">
					<path id="&lt;Path&gt;" class="shp15" d="M738.64 2190.2L751.13 2190.2L840.7 1816.49L813.22 1816.49L738.64 2190.2Z" />
					<path id="&lt;Path&gt;" class="shp15" d="M1112.81 2190.2L1100.32 2190.2L997.54 1803.28L1025.02 1803.28L1112.81 2190.2Z" />
					<g id="&lt;Group&gt;">
						<path id="&lt;Path&gt;" class="shp15" d="M877.79 1830.49C827.75 1830.49 796.05 1821.51 775.82 1801.8C750.74 1777.37 745.56 1739.53 745.48 1690.23C745.32 1586.58 739.59 1565.15 710.41 1501.86C707.17 1494.84 710.24 1486.52 717.26 1483.28C724.29 1480.05 732.6 1483.11 735.84 1490.14C766.68 1557.04 773.32 1581.63 773.48 1690.19C773.56 1740.15 779.9 1766.68 795.36 1781.74C811.22 1797.2 839.9 1803.57 888.34 1802.36C935.11 1801.2 967.3 1794.66 993.17 1789.4C1027.19 1782.49 1051.78 1777.49 1080.93 1791.42C1087.91 1794.76 1090.86 1803.11 1087.52 1810.09C1084.19 1817.07 1075.83 1820.02 1068.86 1816.69C1048.17 1806.8 1030.61 1810.37 998.75 1816.84C971.8 1822.32 938.27 1829.13 889.03 1830.35C885.19 1830.45 881.43 1830.49 877.79 1830.49Z" />
					</g>
				</g>
				<g id="&lt;Group&gt;">
					<path id="&lt;Path&gt;" class="shp6" d="M1495.92 1574L1293 1574C1285.27 1574 1279 1567.74 1279 1560C1279 1552.27 1285.27 1546 1293 1546L1486.98 1546L1565.22 1377.63C1568.48 1370.62 1576.8 1367.57 1583.81 1370.83C1590.83 1374.09 1593.87 1382.41 1590.61 1389.43L1508.61 1565.9C1506.32 1570.84 1501.36 1574 1495.92 1574Z" />
				</g>
				<path id="&lt;Path&gt;" class="shp9" d="M807.34 1412.11C831.11 1484.61 857.7 1535.86 887.11 1565.86C931.23 1610.87 1020.02 1626 1047.82 1624.23C1025.66 1615.32 983.45 1589.96 966.48 1522.78C954.54 1475.54 959.97 1449.89 932.76 1375.02C912.56 1319.45 850.33 1289.31 819.6 1277.47C857.96 1305.03 905.92 1350.4 920.66 1384.93C931.57 1410.48 893.8 1419.54 807.34 1412.11Z" />
				<path id="&lt;Path&gt;" class="shp20" d="M1299.42 1507.54C1340.41 1488.83 1363.14 1480.36 1367.6 1482.14C1374.28 1484.82 1442.46 1525.99 1442.46 1532.81C1442.46 1537.36 1422.41 1528.88 1382.3 1507.39C1386.76 1519.27 1387.65 1528.06 1384.98 1533.76C1380.97 1542.3 1334.72 1542.3 1293 1539.63C1265.19 1537.85 1267.33 1527.15 1299.42 1507.54Z" />
				<path id="&lt;Path&gt;" class="shp8" d="M809.31 1328.1C752.62 1444.29 947.08 1562.07 1062.44 1572.54C1139.35 1579.53 1223.49 1570.43 1314.87 1545.26L1299.42 1507.54C1145.33 1487.43 1066.34 1475.97 1062.44 1473.15C1056.59 1468.93 830.07 1285.55 809.31 1328.1Z" />
				<path id="&lt;Path&gt;" class="shp20" d="M883.01 1141.68C888.27 1155.5 884.41 1169.78 874.41 1173.59C864.4 1177.4 852.03 1169.28 846.77 1155.46C841.52 1141.64 845.37 1127.36 855.38 1123.55C865.39 1119.75 877.76 1127.86 883.01 1141.68Z" />
				<path id="&lt;Path&gt;" class="shp4" d="M989.99 1053.22C1005.65 1046.68 1023.29 1039.68 1017.83 1066.29C1015.46 1077.88 1017.83 1074.61 1021.99 1085.31C1026.15 1096 1011.51 1104.4 1006.76 1110.34C1002 1116.28 1013.68 1122.74 1004.17 1129.87C994.66 1137 982.13 1127.23 973.27 1129.87C946.83 1137.76 950.1 1116.96 935.24 1112.64C920.39 1108.31 913.11 1108.98 910.28 1118.49C907.46 1127.99 920.68 1159.28 909.39 1156.31C898.1 1153.34 895.56 1178.59 892.52 1192.86C889.49 1207.12 881.74 1183.01 882.24 1166.7C883.01 1141.68 876.8 1131.17 867.58 1124.17C858.37 1117.17 854.44 1053.52 899.01 1051.14C943.57 1048.76 943.86 1044.46 962.87 1040.44C981.89 1036.42 982.85 1056.2 989.99 1053.22Z" />
			</g>
			<g id="&lt;Group&gt;">
				<path id="&lt;Path&gt;" class="shp22" d="M3488.49 1780.1C3516.9 1806.04 3504.55 1831.99 3483.54 1880.17C3469.54 1912.29 3461.31 1987.65 3458.83 2106.26L3476.13 2103.79C3474.48 1981.89 3481.48 1904.47 3497.13 1871.52C3520.61 1822.1 3530.49 1797.4 3551.49 1813.46C3565.5 1824.16 3544.49 1813.04 3488.49 1780.1Z" />
				<path id="&lt;Path&gt;" class="shp23" d="M3472.87 1746.51C3476.33 1731.13 3496.82 1714.5 3524.22 1700.38C3520.15 1723.06 3507.09 1760.14 3520.61 1767.75C3538.84 1778 3522.38 1726.23 3529.42 1697.78C3555.15 1685.21 3586.11 1674.94 3614.61 1669.83C3614.57 1669.94 3614.54 1670.04 3614.5 1670.15C3598.44 1710.91 3577.44 1726.98 3586.09 1733.15C3592.59 1737.8 3613.78 1690.71 3641.77 1666.57C3662.77 1665.45 3680.54 1668.29 3691.05 1676.62C3707.3 1689.48 3718.21 1700.89 3701.87 1740.06C3692.53 1746.73 3680.44 1751.51 3666.39 1752.92C3629.33 1756.63 3612.03 1757.86 3637.97 1770.22C3650.68 1776.27 3671.97 1769.87 3689.24 1765.98C3683.64 1776.3 3676.75 1787.98 3668.39 1801.29C3663.08 1809.73 3657.23 1817.05 3651.02 1823.39C3639.08 1825.68 3628.66 1825.7 3623.15 1823.34C3605.85 1815.93 3561.38 1792.45 3550.26 1802.34C3539.37 1812.01 3632.63 1818.14 3626.16 1842.72C3580.96 1868.76 3529.24 1856.37 3520.1 1832.46C3507.82 1800.35 3462.49 1792.79 3472.87 1746.51Z" />
				<path id="&lt;Path&gt;" class="shp22" d="M3566.32 1922.18C3516.9 1885.11 3466.25 1919.7 3440.3 1959.24C3423.01 1985.59 3420.54 2028.42 3432.89 2087.72C3439.48 2087.72 3442.77 2086.49 3442.77 2084.02C3442.77 2080.31 3415.59 1979.01 3479.84 1933.29C3520.03 1904.7 3549.02 1918.47 3552.73 1932.06C3555.2 1941.12 3549.85 1953.88 3536.67 1970.36L3566.32 1922.18Z" />
				<path id="&lt;Path&gt;" class="shp23" d="M3452.66 1845.99C3502.08 1845.99 3518.14 1922.59 3504.55 1967.06C3495.49 1996.71 3484.78 2039.13 3472.42 2094.31L3460.07 2081.96C3491.37 2004.54 3503.31 1948.53 3495.9 1913.94C3484.78 1862.05 3457.6 1853.4 3452.66 1853.4C3449.36 1853.4 3449.36 1850.93 3452.66 1845.99Z" />
				<path id="&lt;Path&gt;" class="shp22" d="M3494.11 1967.41C3497.58 1962.8 3501.87 1959 3507.11 1956.47C3506.43 1960.16 3505.57 1963.7 3504.55 1967.06C3498.35 1987.33 3491.14 2015.54 3485.11 2040.25C3484.57 2037.09 3483.72 2032.21 3482.42 2024.69C3482.11 2022.91 3481.87 2020.98 3481.7 2018.94C3486.54 2002.48 3491.12 1984.54 3494.11 1967.41Z" />
				<path id="&lt;Path&gt;" class="shp23" d="M3507.62 1967.78C3601.51 1928.24 3552.04 1873.99 3634.82 1909.82C3640.65 1912.34 3647.75 1918.71 3654.87 1927.48C3647.49 1929.57 3638.57 1931.08 3628.64 1929.59C3603.93 1925.88 3612.58 1945.65 3653.35 1950.59C3661.03 1951.52 3667.27 1952.81 3672.45 1954.62C3691.87 1991.93 3700.63 2041.01 3659.53 2058.07C3651.43 2061.44 3641.42 2063.36 3630.27 2064.08C3617.59 2053.99 3633.37 1995.66 3613.81 2003.71C3595.04 2011.45 3619.7 2053.72 3616.32 2064.37C3597.79 2064.04 3577.27 2061.01 3557.67 2056.15C3549.91 2051.8 3543.98 2045.97 3542.16 2038.31C3535.98 2012.36 3576.75 1996.3 3577.99 1974.06C3579.12 1953.62 3563.04 2019.04 3520.45 2028.67C3481.93 2010.68 3463.73 1986.26 3507.62 1967.78Z" />
				<path id="&lt;Path&gt;" class="shp23" d="M3440.71 1897.88C3450.6 1876.87 3424.65 1871.93 3425.89 1887.99C3426.98 1902.23 3427.11 1936.82 3412.51 1946.24C3387.34 1943.51 3353.09 1933.37 3327.2 1917.91C3326.87 1915.82 3327.19 1913.67 3328.29 1911.47C3339.41 1889.23 3411.06 1870.7 3388.83 1863.29C3371.11 1857.38 3340.08 1892.23 3315.07 1909.78C3300.05 1898.38 3289.99 1884.8 3289.99 1869.64C3289.99 1849.11 3314.93 1825.88 3347.18 1814.77C3361.7 1816.24 3375.18 1824.17 3396.24 1836.11C3427.35 1853.74 3420.15 1825.23 3390.74 1808.32C3416.13 1809.63 3441.45 1820.48 3460.12 1846.4C3458.95 1853.79 3462.27 1863.19 3470.08 1874.62C3502.07 1921.37 3465.15 1948.66 3421.02 1946.89C3423.52 1934.57 3433.89 1912.39 3440.71 1897.88Z" />
				<path id="&lt;Path&gt;" class="shp22" d="M3563.35 1920.08C3587.51 1938.75 3614.34 1960.58 3647.29 1975.4C3669.26 1985.29 3678.04 2006.34 3673.65 2038.55C3676.94 2010.73 3669.44 1992.06 3651.13 1982.54C3623.68 1968.27 3605.56 1951.24 3584.69 1947.95C3570.78 1945.75 3559.98 1943.55 3552.29 1941.36C3556.69 1932.57 3557.6 1926.53 3555.04 1923.24C3552.48 1919.94 3555.25 1918.89 3563.35 1920.08Z" />
				<path id="&lt;Path&gt;" class="shp22" d="M3682.43 1700.85C3594.03 1724.46 3529.23 1781.02 3517.15 1794.75C3509.1 1803.9 3505.07 1809.75 3505.07 1812.32L3514.41 1829.89L3518.8 1827.69C3514.04 1817.81 3517.88 1806.46 3530.33 1793.65C3562.53 1760.5 3601.71 1734.34 3628.62 1722.81C3646.56 1715.12 3664.5 1707.8 3682.43 1700.85Z" />
				<path id="&lt;Path&gt;" class="shp14" d="M3438.4 2190.2L3472.18 2190.2C3496.2 2190.2 3515.66 2170.73 3515.66 2146.71L3515.66 2069.11L3394.91 2069.11L3394.91 2146.71C3394.91 2170.73 3414.38 2190.2 3438.4 2190.2Z" />
				<path id="&lt;Path&gt;" class="shp0" d="M3515.66 2091.48L3394.91 2091.48L3394.91 2082.98L3515.66 2082.98L3515.66 2091.48Z" />
				<path id="&lt;Path&gt;" class="shp0" d="M3515.66 2103.48L3394.91 2103.48L3394.91 2098.48L3515.66 2098.48L3515.66 2103.48Z" />
			</g>
			<g id="&lt;Group&gt;">
				<g id="&lt;Group&gt;">
					<path id="&lt;Path&gt;" class="shp11" d="M2005.9 448.56C2005.9 357.05 1932.3 282.73 1841.06 281.56C1749.4 280.39 1673.34 354.2 1671.88 445.85C1671.17 490.59 1688.06 531.37 1716.07 561.75C1728.97 575.74 1736.14 594.08 1736.14 613.11L1736.14 687.98C1736.14 736.41 1775.76 776.04 1824.2 776.04L1853.56 776.04C1902 776.04 1941.62 736.41 1941.62 687.98L1941.62 613.12C1941.62 593.92 1949.03 575.56 1962 561.41C1989.26 531.69 2005.9 492.07 2005.9 448.56Z" />
					<path id="&lt;Path&gt;" class="shp24" d="M1982.57 459.77C1982.57 381.04 1919.25 317.1 1840.76 316.1C1761.9 315.09 1696.46 378.59 1695.21 457.44C1694.6 495.92 1709.13 531.01 1733.22 557.14C1744.33 569.18 1750.49 584.96 1750.49 601.33L1750.49 665.74C1750.49 707.41 1784.58 741.5 1826.25 741.5L1851.51 741.5C1893.18 741.5 1927.27 707.41 1927.27 665.74L1927.27 601.34C1927.27 584.83 1933.64 569.03 1944.8 556.86C1968.25 531.29 1982.57 497.2 1982.57 459.77Z" />
					<g id="&lt;Group&gt;">
						<path id="&lt;Path&gt;" class="shp25" d="M1863.57 643.13L1808.57 643.13C1805.98 643.13 1803.82 641.16 1803.59 638.59C1803.49 637.52 1793.22 531.35 1745.74 501.61C1743.4 500.15 1742.7 497.06 1744.16 494.72C1745.63 492.38 1748.71 491.67 1751.05 493.14C1797.37 522.14 1810.53 611.61 1813.06 633.13L1858.28 633.13C1858.1 625.75 1858.52 611.49 1862.78 593.04C1868.47 568.38 1882.42 531.18 1916.57 493.99C1918.44 491.96 1921.6 491.83 1923.64 493.69C1925.67 495.56 1925.81 498.73 1923.94 500.76C1861.51 568.72 1868.46 636.89 1868.53 637.57C1868.69 638.98 1868.24 640.4 1867.29 641.46C1866.35 642.53 1864.99 643.13 1863.57 643.13Z" />
					</g>
					<g id="&lt;Group&gt;">
						<path id="&lt;Compound Path&gt;" fill-rule="evenodd" class="shp25" d="M1904.74 508.45C1886.17 508.45 1860.85 495.26 1834.19 480.96C1799.75 499.3 1767.59 515.75 1749.59 504.84C1741.13 499.71 1737.08 489.67 1737.22 474.15C1737.35 459.54 1741.54 449.69 1749.68 444.87C1767.71 434.19 1799.94 451.23 1834.21 469.62C1869.15 450.99 1902.06 433.63 1920.03 444.57C1928.1 449.49 1932.09 459.47 1931.9 474.26C1931.71 489.64 1927.28 499.98 1918.76 505.01C1914.71 507.4 1909.99 508.45 1904.74 508.45ZM1844.82 475.3C1872.27 489.9 1901 503.87 1913.68 496.39C1918.99 493.27 1921.75 485.77 1921.9 474.13C1922.05 463.13 1919.67 456.06 1914.83 453.12C1902.57 445.65 1872.8 460.46 1844.82 475.3ZM1763.19 451.52C1759.89 451.52 1757.04 452.13 1754.77 453.48C1749.86 456.38 1747.32 463.37 1747.22 474.24C1747.12 485.77 1749.66 493.19 1754.77 496.28C1767.11 503.76 1795.93 489.86 1823.58 475.27C1801.23 463.35 1777.77 451.52 1763.19 451.52Z" />
					</g>
					<path id="&lt;Path&gt;" class="shp25" d="M1856.57 799.8L1824.57 799.8C1813.29 799.8 1804.07 790.58 1804.07 779.3L1804.07 776.3C1804.07 765.03 1813.29 755.8 1824.57 755.8L1856.57 755.8C1867.84 755.8 1877.07 765.03 1877.07 776.3L1877.07 779.3C1877.07 790.58 1867.84 799.8 1856.57 799.8Z" />
					<path id="&lt;Path&gt;" class="shp25" d="M1731.28 634.13L1731.28 687.09C1731.28 737.82 1772.78 779.32 1823.51 779.32L1854.25 779.32C1904.98 779.32 1946.48 737.82 1946.48 687.09L1946.48 634.13L1731.28 634.13Z" />
					<path id="&lt;Path&gt;" class="shp26" d="M1945.57 650.8L1734.9 650.8C1728.3 650.8 1722.9 645.4 1722.9 638.8L1722.9 637.47C1722.9 630.87 1728.3 625.47 1734.9 625.47L1945.57 625.47C1952.17 625.47 1957.57 630.87 1957.57 637.47L1957.57 638.8C1957.57 645.4 1952.17 650.8 1945.57 650.8Z" />
					<path id="&lt;Path&gt;" class="shp26" d="M1946.32 669.79L1737.25 695.62C1730.7 696.43 1724.67 691.73 1723.87 685.18L1723.7 683.86C1722.89 677.31 1727.59 671.29 1734.14 670.48L1943.22 644.65C1949.77 643.84 1955.79 648.54 1956.6 655.09L1956.76 656.41C1957.57 662.96 1952.87 668.98 1946.32 669.79Z" />
					<path id="&lt;Path&gt;" class="shp26" d="M1946.32 706.38L1737.25 732.21C1730.7 733.02 1724.67 728.32 1723.87 721.77L1723.7 720.45C1722.89 713.9 1727.59 707.88 1734.14 707.07L1943.22 681.24C1949.77 680.43 1955.79 685.13 1956.6 691.68L1956.76 693C1957.57 699.55 1952.87 705.58 1946.32 706.38Z" />
					<path id="&lt;Path&gt;" class="shp26" d="M1933.42 745.54L1759.29 767.05C1753.28 767.79 1747.75 763.48 1747.01 757.47L1746.6 754.19C1745.86 748.18 1750.17 742.65 1756.18 741.91L1930.32 720.4C1936.33 719.66 1941.85 723.97 1942.6 729.98L1943 733.26C1943.74 739.27 1939.43 744.8 1933.42 745.54Z" />
				</g>
				<g id="&lt;Group&gt;">
					<path id="&lt;Path&gt;" class="shp26" d="M3441.06 793.02L3553.3 793.02C3553.3 854.59 3502.63 905.25 3441.06 905.25C3379.49 905.25 3328.83 854.59 3328.83 793.02C3328.83 731.44 3379.49 680.78 3441.06 680.78L3441.06 793.02Z" />
					<g id="&lt;Group&gt;">
						<path id="&lt;Path&gt;" class="shp27" d="M3572.1 777.3C3572.1 715.31 3521.85 665.06 3459.86 665.06L3459.86 777.3L3572.1 777.3Z" />
						<path id="&lt;Path&gt;" class="shp27" d="M3347.62 777.3C3347.62 839.29 3397.87 889.54 3459.86 889.54C3398.29 889.54 3347.62 838.87 3347.62 777.3Z" />
						<path id="&lt;Path&gt;" class="shp27" d="M3459.86 665.06C3397.87 665.06 3347.62 715.31 3347.62 777.3C3347.62 715.73 3398.29 665.06 3459.86 665.06Z" />
						<path id="&lt;Path&gt;" class="shp27" d="M3459.86 889.54C3521.85 889.54 3572.1 839.29 3572.1 777.3C3572.1 838.87 3521.43 889.54 3459.86 889.54Z" />
					</g>
				</g>
				<g id="&lt;Group&gt;">
					<path id="&lt;Path&gt;" class="shp26" d="M1268.96 789.7L1244.45 789.7L1244.45 718.77L1268.96 718.77L1268.96 789.7Z" />
					<path id="&lt;Path&gt;" class="shp26" d="M1583.16 789.7L1558.64 789.7L1558.64 741.85L1583.16 741.85L1583.16 789.7Z" />
					<path id="&lt;Path&gt;" class="shp26" d="M1372.85 789.7L1348.33 789.7L1348.33 623.75L1372.85 623.75L1372.85 789.7Z" />
					<path id="&lt;Path&gt;" class="shp26" d="M1424.79 789.7L1400.28 789.7L1400.28 715.11L1424.79 715.11L1424.79 789.7Z" />
					<path id="&lt;Path&gt;" class="shp26" d="M1476.73 789.7L1452.22 789.7L1452.22 694L1476.73 694L1476.73 789.7Z" />
					<path id="&lt;Path&gt;" class="shp26" d="M1320.9 789.7L1296.39 789.7L1296.39 671.94L1320.9 671.94L1320.9 789.7Z" />
					<path id="&lt;Path&gt;" class="shp26" d="M1528.85 789.7L1504.34 789.7L1504.34 644.66L1528.85 644.66L1528.85 789.7Z" />
				</g>
				<g id="&lt;Clip Group&gt;" clip-path="url(#cp1)">
					<path id="&lt;Path&gt;" class="shp8" d="M591.12 584.04L462.56 505.42L439.31 654.31C499.7 663.83 559.6 635.53 591.12 584.04Z" />
					<path id="&lt;Path&gt;" class="shp23" d="M591.25 583.86C591.6 583.29 592.05 582.51 592.03 582.54C619.19 537.06 620.28 480.57 595.37 434.21C549.88 458.04 576.97 443.56 462.56 505.42C591.33 584.17 571.33 572.02 591.25 583.86Z" />
					<path id="&lt;Path&gt;" class="shp26" d="M321.25 453.35L462.56 505.42L595.13 433.74C533.12 319.07 366.21 332.82 321.25 453.35Z" />
					<path id="&lt;Path&gt;" class="shp27" d="M439.31 654.31L462.56 505.42L321.25 453.35C287.64 543.44 347.29 639.8 439.31 654.31Z" />
					<path id="&lt;Path&gt;" class="shp0" d="M312 478C314.63 478 317.05 478.67 319.14 479.85C320.36 473.1 322.06 466.4 324.27 459.8L401.01 488.07C401.01 488.05 401 488.02 401 488C400.84 484.5 402.16 481.23 404.33 478.64L396.65 475.81L327.76 450.43C333.42 436.67 340.93 424.15 349.96 413.1C346.71 411.91 344.05 409.61 342.3 406.67C332.56 418.59 324.45 432.1 318.39 446.97L318.3 446.94L316.56 451.61L314.81 456.31L314.89 456.34C312.46 463.56 310.6 470.89 309.27 478.28C310.17 478.1 311.08 478 312 478Z" />
					<g id="&lt;Group&gt;">
						<g id="&lt;Group&gt;">
							<path id="&lt;Compound Path&gt;" fill-rule="evenodd" class="shp1" d="M597.92 582.34L597.99 582.38L596.41 584.97C596.38 585.01 596.36 585.06 596.33 585.1L596.23 585.28C596.06 585.56 595.77 586.06 595.52 586.46C594.47 588.21 593.94 589.09 593.93 589.08L592.95 590.68L592.85 590.62C576.94 614.94 554.66 634.24 528.15 646.58C507.44 656.23 485.17 661.14 462.69 661.14C456.29 661.14 449.89 660.74 443.49 659.94L443.48 660.03C440.18 659.51 438.53 659.25 438.53 659.25L433.6 658.47L433.61 658.38C389.39 649.95 351.12 622.84 328.07 583.37C314.28 559.77 307.15 533.51 306.86 507.06C308.45 507.66 310.17 508 312 508C313.66 508 315.3 507.68 316.86 507.11C317.16 531.79 323.83 556.3 336.7 578.33C358.23 615.18 393.92 640.55 435.16 648.5L456.99 508.7L427.31 497.76C429.59 495.22 431.02 491.97 430.99 488.46L458.57 498.62L458.78 497.25L462.72 499.66L463.92 499C483.46 488.44 498.71 480.19 510.83 473.63C529.75 463.39 541.05 457.28 549.13 452.93L588.28 431.76C560.21 383.68 508.88 356.38 453.1 360.26C421.15 362.48 392.04 374.47 368.92 393.86C367.69 390.62 365.47 387.88 362.57 386.12C387.25 365.44 418.31 352.65 452.41 350.29C481.41 348.27 510.05 354.14 535.25 367.27C560.97 380.67 582.36 401.46 597.36 427.52L597.43 427.48L599.38 431.1C599.43 431.19 599.48 431.27 599.53 431.36L601.91 435.76L601.82 435.81C624.92 481.98 623.47 537.43 597.92 582.34ZM584.17 585.65L565.02 573.94C556.97 569.03 544.18 561.2 521.81 547.52L466.35 513.6L445.03 650.06C499.96 656.82 553.63 631.97 584.17 585.65ZM593.23 440.97C589.2 443.08 585.81 444.85 582.85 446.4C570.72 452.74 565.83 455.3 553.89 461.73L472.58 505.69L570.53 565.58C580.99 571.97 583.27 573.32 588.53 576.43C589.16 576.8 589.48 576.99 589.48 576.99C613.04 535.27 614.42 483.9 593.23 440.97Z" />
						</g>
					</g>
					<path id="&lt;Compound Path&gt;" class="shp28" d="" />
				</g>
				<g id="&lt;Group&gt;">
					<path id="&lt;Path&gt;" class="shp26" d="M1286.93 532.98L872.37 532.98C867.85 532.98 864.2 529.32 864.2 524.81L864.2 346.41C864.2 341.9 867.85 338.24 872.37 338.24L1286.93 338.24C1291.44 338.24 1295.1 341.9 1295.1 346.41L1295.1 524.81C1295.1 529.32 1291.44 532.98 1286.93 532.98Z" />
					<path id="&lt;Path&gt;" class="shp0" d="M1276.72 523.84L882.58 523.84C878.93 523.84 875.98 520.88 875.98 517.24L875.98 396.01C875.98 392.36 878.93 389.41 882.58 389.41L1276.72 389.41C1280.36 389.41 1283.32 392.36 1283.32 396.01L1283.32 517.24C1283.32 520.88 1280.36 523.84 1276.72 523.84Z" />
					<g id="&lt;Group&gt;">
						<path id="&lt;Path&gt;" class="shp0" d="M895.18 367.77L885.62 367.77C883.6 367.77 881.96 366.13 881.96 364.11L881.96 356.23C881.96 354.21 883.6 352.58 885.62 352.58L895.18 352.58C897.2 352.58 898.84 354.21 898.84 356.23L898.84 364.11C898.84 366.13 897.2 367.77 895.18 367.77Z" />
						<path id="&lt;Path&gt;" class="shp0" d="M925.88 367.77L916.31 367.77C914.29 367.77 912.65 366.13 912.65 364.11L912.65 356.23C912.65 354.21 914.29 352.58 916.31 352.58L925.88 352.58C927.9 352.58 929.53 354.21 929.53 356.23L929.53 364.11C929.53 366.13 927.9 367.77 925.88 367.77Z" />
						<path id="&lt;Path&gt;" class="shp0" d="M956.57 367.77L947 367.77C944.98 367.77 943.35 366.13 943.35 364.11L943.35 356.23C943.35 354.21 944.98 352.58 947 352.58L956.57 352.58C958.59 352.58 960.23 354.21 960.23 356.23L960.23 364.11C960.23 366.13 958.59 367.77 956.57 367.77Z" />
					</g>
					<path id="&lt;Path&gt;" class="shp26" d="M1266.74 418.87L1051.28 418.87C1047.74 418.87 1044.84 415.97 1044.84 412.43C1044.84 408.88 1047.74 405.98 1051.28 405.98L1266.74 405.98C1270.29 405.98 1273.19 408.88 1273.19 412.43C1273.19 415.97 1270.29 418.87 1266.74 418.87Z" />
					<path id="&lt;Path&gt;" class="shp26" d="M1104.69 518.31L889.23 518.31C885.68 518.31 882.78 515.41 882.78 511.87C882.78 508.32 885.68 505.42 889.23 505.42L1104.69 505.42C1108.23 505.42 1111.13 508.32 1111.13 511.87C1111.13 515.41 1108.23 518.31 1104.69 518.31Z" />
					<path id="&lt;Path&gt;" class="shp26" d="M1144.38 518.31L1122.08 518.31C1120.87 518.31 1119.88 517.32 1119.88 516.11L1119.88 507.63C1119.88 506.42 1120.87 505.42 1122.08 505.42L1144.38 505.42C1145.59 505.42 1146.58 506.42 1146.58 507.63L1146.58 516.11C1146.58 517.32 1145.59 518.31 1144.38 518.31Z" />
					<path id="&lt;Path&gt;" class="shp26" d="M1177.99 518.31L1155.69 518.31C1154.48 518.31 1153.49 517.32 1153.49 516.11L1153.49 507.63C1153.49 506.42 1154.48 505.42 1155.69 505.42L1177.99 505.42C1179.2 505.42 1180.19 506.42 1180.19 507.63L1180.19 516.11C1180.19 517.32 1179.2 518.31 1177.99 518.31Z" />
					<path id="&lt;Path&gt;" class="shp26" d="M1268.82 446.95L912.01 446.95C909.61 446.95 907.64 444.99 907.64 442.58C907.64 440.18 909.61 438.21 912.01 438.21L1268.82 438.21C1271.22 438.21 1273.19 440.18 1273.19 442.58C1273.19 444.99 1271.22 446.95 1268.82 446.95Z" />
					<path id="&lt;Path&gt;" class="shp26" d="M1268.82 465.83L912.01 465.83C909.61 465.83 907.64 463.86 907.64 461.46C907.64 459.05 909.61 457.08 912.01 457.08L1268.82 457.08C1271.22 457.08 1273.19 459.05 1273.19 461.46C1273.19 463.86 1271.22 465.83 1268.82 465.83Z" />
				</g>
				<g id="&lt;Group&gt;">
					<path id="&lt;Path&gt;" class="shp29" d="M2345.23 408.98L2161.23 408.98L2161.23 301.74L2299.61 301.74C2317.43 319.55 2327.42 329.54 2345.23 347.36L2345.23 408.98Z" />
					<path id="&lt;Path&gt;" class="shp27" d="M2296.23 301.74L2296.23 358.98L2345.23 358.98L2345.23 347.98L2299.3 302.05L2296.23 301.74Z" />
					<path id="&lt;Path&gt;" class="shp29" d="M2299.61 301.74L2299.61 347.98L2345.23 347.98L2299.61 301.74Z" />
					<path id="&lt;Path&gt;" class="shp0" d="M2263.98 341.98L2181.98 341.98C2180.2 341.98 2178.73 340.52 2178.73 338.73C2178.73 336.94 2180.2 335.48 2181.98 335.48L2263.98 335.48C2265.77 335.48 2267.23 336.94 2267.23 338.73C2267.23 340.52 2265.77 341.98 2263.98 341.98Z" />
					<path id="&lt;Path&gt;" class="shp0" d="M2263.98 358.61L2181.98 358.61C2180.2 358.61 2178.73 357.14 2178.73 355.36C2178.73 353.57 2180.2 352.11 2181.98 352.11L2263.98 352.11C2265.77 352.11 2267.23 353.57 2267.23 355.36C2267.23 357.14 2265.77 358.61 2263.98 358.61Z" />
					<path id="&lt;Path&gt;" class="shp0" d="M2263.98 376.11L2181.98 376.11C2180.2 376.11 2178.73 374.64 2178.73 372.86C2178.73 371.07 2180.2 369.61 2181.98 369.61L2263.98 369.61C2265.77 369.61 2267.23 371.07 2267.23 372.86C2267.23 374.64 2265.77 376.11 2263.98 376.11Z" />
				</g>
				<path id="&lt;Path&gt;" class="shp6" d="M2253.23 309.98C2253.23 313.02 2250.77 315.48 2247.73 315.48C2244.7 315.48 2242.23 313.02 2242.23 309.98C2242.23 306.94 2244.7 304.48 2247.73 304.48C2250.77 304.48 2253.23 306.94 2253.23 309.98Z" />
				<path id="&lt;Path&gt;" class="shp30" d="M1527.3 445.42L1412.48 423.24L1439.22 284.8L1554.05 306.98L1527.3 445.42Z" />
				<path id="&lt;Path&gt;" class="shp26" d="M1529.75 366.83L1468.88 355.07C1467.26 354.76 1466.19 353.17 1466.5 351.55C1466.81 349.93 1468.39 348.86 1470.02 349.18L1530.89 360.94C1532.51 361.25 1533.58 362.83 1533.27 364.45C1532.95 366.07 1531.37 367.14 1529.75 366.83Z" />
				<path id="&lt;Path&gt;" class="shp26" d="M1526.81 382.05L1465.94 370.29C1464.32 369.97 1463.25 368.39 1463.56 366.77C1463.87 365.15 1465.45 364.08 1467.07 364.4L1527.95 376.16C1529.57 376.47 1530.64 378.05 1530.33 379.67C1530.01 381.29 1528.43 382.36 1526.81 382.05Z" />
				<path id="&lt;Path&gt;" class="shp26" d="M1523.79 397.69L1462.91 385.92C1461.29 385.61 1460.23 384.03 1460.54 382.41C1460.85 380.79 1462.43 379.72 1464.05 380.03L1524.93 391.79C1526.55 392.11 1527.62 393.69 1527.3 395.31C1526.99 396.93 1525.41 398 1523.79 397.69Z" />
				<path id="&lt;Path&gt;" class="shp6" d="M1488.54 303.36C1488.02 306.07 1485.4 307.85 1482.69 307.32C1479.97 306.8 1478.2 304.17 1478.72 301.46C1479.25 298.75 1481.87 296.98 1484.58 297.5C1487.29 298.03 1489.07 300.65 1488.54 303.36Z" />
				<path id="&lt;Path&gt;" class="shp26" d="M2430.15 559.03L2252.46 540.31L2264.19 428.93L2405.08 443.77C2417.94 459.66 2425.15 468.56 2438.01 484.45L2430.15 559.03Z" />
				<path id="&lt;Path&gt;" class="shp0" d="M2402.56 451.72L2270.29 437.78L2260.4 531.76L2424.83 549.09L2430.63 494.06L2398.46 490.67L2402.56 451.72Z" />
				<path id="&lt;Path&gt;" class="shp26" d="M2384.63 485.86L2298.95 476.83C2296.99 476.63 2295.55 474.85 2295.76 472.89C2295.96 470.92 2297.74 469.49 2299.7 469.69L2385.38 478.72C2387.35 478.93 2388.78 480.7 2388.58 482.67C2388.37 484.63 2386.6 486.07 2384.63 485.86Z" />
				<path id="&lt;Path&gt;" class="shp26" d="M2382.64 504.74L2296.96 495.72C2295 495.51 2293.56 493.73 2293.77 491.77C2293.98 489.81 2295.75 488.37 2297.71 488.58L2383.4 497.6C2385.36 497.81 2386.79 499.58 2386.59 501.55C2386.38 503.51 2384.61 504.95 2382.64 504.74Z" />
				<path id="&lt;Path&gt;" class="shp26" d="M2380.57 524.46L2294.89 515.43C2292.92 515.22 2291.49 513.45 2291.69 511.48C2291.9 509.52 2293.67 508.08 2295.64 508.29L2381.32 517.32C2383.28 517.52 2384.72 519.3 2384.51 521.26C2384.3 523.23 2382.53 524.66 2380.57 524.46Z" />
				<path id="&lt;Path&gt;" class="shp6" d="M2336.18 454.65C2336.18 457.68 2333.72 460.15 2330.68 460.15C2327.65 460.15 2325.18 457.68 2325.18 454.65C2325.18 451.61 2327.65 449.15 2330.68 449.15C2333.72 449.15 2336.18 451.61 2336.18 454.65Z" />
				<g id="&lt;Group&gt;">
					<path id="&lt;Path&gt;" class="shp23" d="M3313.06 367.77C3313.06 401.65 3285.59 429.12 3251.71 429.12C3217.83 429.12 3190.36 401.65 3190.36 367.77C3190.36 333.89 3217.83 306.42 3251.71 306.42C3285.59 306.42 3313.06 333.89 3313.06 367.77Z" />
					<g id="&lt;Group&gt;">
						<path id="&lt;Path&gt;" class="shp0" d="M3245.62 388.77C3245.58 388.77 3245.54 388.77 3245.51 388.76C3244.68 388.73 3243.91 388.37 3243.37 387.75L3226.7 368.81C3225.61 367.57 3225.73 365.67 3226.97 364.58C3228.22 363.48 3230.11 363.6 3231.21 364.85L3245.78 381.41L3279.12 348.78C3280.3 347.62 3282.2 347.64 3283.36 348.83C3284.52 350.01 3284.5 351.91 3283.32 353.07L3247.72 387.91C3247.16 388.46 3246.4 388.77 3245.62 388.77Z" />
					</g>
				</g>
				<g id="&lt;Group&gt;">
					<path id="&lt;Path&gt;" class="shp26" d="M487.52 937.27L841.22 937.27C850.29 937.27 857.7 929.85 857.7 920.79L857.7 794.41C857.7 785.35 850.29 777.93 841.22 777.93L487.52 777.93C478.46 777.93 471.04 785.35 471.04 794.41L471.04 920.79C471.04 929.85 478.46 937.27 487.52 937.27Z" />
					<path id="&lt;Path&gt;" class="shp26" d="M811 913.23L811 1001.14L709.7 899.84C775.86 908.77 809.63 913.23 811 913.23Z" />
					<path id="&lt;Path&gt;" class="shp0" d="M505.01 921.47L823.73 921.47C831.42 921.47 837.7 915.18 837.7 907.5L837.7 807.7C837.7 800.02 831.42 793.73 823.73 793.73L505.01 793.73C497.33 793.73 491.04 800.02 491.04 807.7L491.04 907.5C491.04 915.18 497.33 921.47 505.01 921.47Z" />
					<path id="&lt;Path&gt;" class="shp26" d="M648.92 825.32L805.51 825.32C809.29 825.32 812.38 822.23 812.38 818.45C812.38 814.68 809.29 811.58 805.51 811.58L648.92 811.58C645.14 811.58 642.05 814.68 642.05 818.45C642.05 822.23 645.14 825.32 648.92 825.32Z" />
					<path id="&lt;Path&gt;" class="shp26" d="M518.12 851.58L808.56 851.58C810.66 851.58 812.38 849.86 812.38 847.76L812.38 847.68C812.38 845.58 810.66 843.86 808.56 843.86L518.12 843.86C516.02 843.86 514.31 845.58 514.31 847.68L514.31 847.76C514.31 849.86 516.02 851.58 518.12 851.58Z" />
					<path id="&lt;Path&gt;" class="shp26" d="M518.12 866.53L808.56 866.53C810.66 866.53 812.38 864.81 812.38 862.71L812.38 862.63C812.38 860.53 810.66 858.81 808.56 858.81L518.12 858.81C516.02 858.81 514.31 860.53 514.31 862.63L514.31 862.71C514.31 864.81 516.02 866.53 518.12 866.53Z" />
				</g>
				<g id="&lt;Group&gt;">
					<path id="&lt;Path&gt;" class="shp26" d="M3103.49 825.94L3122.03 825.94C3125.95 825.94 3129.12 822.77 3129.12 818.85L3129.12 803.59C3129.12 799.67 3125.95 796.5 3122.03 796.5L3103.49 796.5C3099.58 796.5 3096.41 799.67 3096.41 803.59L3096.41 818.85C3096.41 822.77 3099.58 825.94 3103.49 825.94Z" />
					<path id="&lt;Path&gt;" class="shp26" d="M3044.01 825.94L3062.55 825.94C3066.47 825.94 3069.64 822.77 3069.64 818.85L3069.64 803.59C3069.64 799.67 3066.47 796.5 3062.55 796.5L3044.01 796.5C3040.1 796.5 3036.93 799.67 3036.93 803.59L3036.93 818.85C3036.93 822.77 3040.1 825.94 3044.01 825.94Z" />
					<path id="&lt;Path&gt;" class="shp26" d="M2984.53 825.94L3003.07 825.94C3006.99 825.94 3010.16 822.77 3010.16 818.85L3010.16 803.59C3010.16 799.67 3006.99 796.5 3003.07 796.5L2984.53 796.5C2980.62 796.5 2977.45 799.67 2977.45 803.59L2977.45 818.85C2977.45 822.77 2980.62 825.94 2984.53 825.94Z" />
				</g>
			</g>
		</g>
	</g>
</svg>